<svg viewBox="0 0 1434 400" xmlns="http://www.w3.org/2000/svg"><g><g><g><g><g><line x1="51.41600036621094" y1="377.95999908447266" x2="46.41600036621094" y2="377.95999908447266" style="visibility: inherit;" fill="rgb(0, 0, 0)" stroke="rgb(204, 204, 204)" stroke-width="1px"></line><line x1="51.41600036621094" y1="335.96444363064234" x2="46.41600036621094" y2="335.96444363064234" style="visibility: inherit;" fill="rgb(0, 0, 0)" stroke="rgb(204, 204, 204)" stroke-width="1px"></line><line x1="51.41600036621094" y1="293.96888817681196" x2="46.41600036621094" y2="293.96888817681196" style="visibility: inherit;" fill="rgb(0, 0, 0)" stroke="rgb(204, 204, 204)" stroke-width="1px"></line><line x1="51.41600036621094" y1="251.97333272298184" x2="46.41600036621094" y2="251.97333272298184" style="visibility: inherit;" fill="rgb(0, 0, 0)" stroke="rgb(204, 204, 204)" stroke-width="1px"></line><line x1="51.41600036621094" y1="209.97777726915152" x2="46.41600036621094" y2="209.97777726915152" style="visibility: inherit;" fill="rgb(0, 0, 0)" stroke="rgb(204, 204, 204)" stroke-width="1px"></line><line x1="51.41600036621094" y1="167.98222181532117" x2="46.41600036621094" y2="167.98222181532117" style="visibility: inherit;" fill="rgb(0, 0, 0)" stroke="rgb(204, 204, 204)" stroke-width="1px"></line><line x1="51.41600036621094" y1="125.98666636149082" x2="46.41600036621094" y2="125.98666636149082" style="visibility: inherit;" fill="rgb(0, 0, 0)" stroke="rgb(204, 204, 204)" stroke-width="1px"></line><line x1="51.41600036621094" y1="83.99111090766047" x2="46.41600036621094" y2="83.99111090766047" style="visibility: inherit;" fill="rgb(0, 0, 0)" stroke="rgb(204, 204, 204)" stroke-width="1px"></line><line x1="51.41600036621094" y1="41.99555545383009" x2="46.41600036621094" y2="41.99555545383009" style="visibility: inherit;" fill="rgb(0, 0, 0)" stroke="rgb(204, 204, 204)" stroke-width="1px"></line><line x1="51.41600036621094" y1="0" x2="46.41600036621094" y2="0" style="visibility: inherit;" fill="rgb(0, 0, 0)" stroke="rgb(204, 204, 204)" stroke-width="1px"></line></g><g transform="translate(41.41600036621094, 0)"><text style="text-anchor: end; visibility: hidden; font-family: &quot;Helvetica Neue&quot;, sans-serif; font-size: 12px; font-weight: 200;" x="0" y="377.95999908447266" dx="0em" dy="0.3em" fill="rgb(50, 49, 63)" stroke="none" stroke-width="1px">0.76</text><text style="text-anchor: end; visibility: inherit; font-family: &quot;Helvetica Neue&quot;, sans-serif; font-size: 12px; font-weight: 200;" x="0" y="335.96444363064234" dx="0em" dy="0.3em" fill="rgb(50, 49, 63)" stroke="none" stroke-width="1px">0.78</text><text style="text-anchor: end; visibility: inherit; font-family: &quot;Helvetica Neue&quot;, sans-serif; font-size: 12px; font-weight: 200;" x="0" y="293.96888817681196" dx="0em" dy="0.3em" fill="rgb(50, 49, 63)" stroke="none" stroke-width="1px">0.8</text><text style="text-anchor: end; visibility: inherit; font-family: &quot;Helvetica Neue&quot;, sans-serif; font-size: 12px; font-weight: 200;" x="0" y="251.97333272298184" dx="0em" dy="0.3em" fill="rgb(50, 49, 63)" stroke="none" stroke-width="1px">0.82</text><text style="text-anchor: end; visibility: inherit; font-family: &quot;Helvetica Neue&quot;, sans-serif; font-size: 12px; font-weight: 200;" x="0" y="209.97777726915152" dx="0em" dy="0.3em" fill="rgb(50, 49, 63)" stroke="none" stroke-width="1px">0.84</text><text style="text-anchor: end; visibility: inherit; font-family: &quot;Helvetica Neue&quot;, sans-serif; font-size: 12px; font-weight: 200;" x="0" y="167.98222181532117" dx="0em" dy="0.3em" fill="rgb(50, 49, 63)" stroke="none" stroke-width="1px">0.86</text><text style="text-anchor: end; visibility: inherit; font-family: &quot;Helvetica Neue&quot;, sans-serif; font-size: 12px; font-weight: 200;" x="0" y="125.98666636149082" dx="0em" dy="0.3em" fill="rgb(50, 49, 63)" stroke="none" stroke-width="1px">0.88</text><text style="text-anchor: end; visibility: inherit; font-family: &quot;Helvetica Neue&quot;, sans-serif; font-size: 12px; font-weight: 200;" x="0" y="83.99111090766047" dx="0em" dy="0.3em" fill="rgb(50, 49, 63)" stroke="none" stroke-width="1px">0.9</text><text style="text-anchor: end; visibility: inherit; font-family: &quot;Helvetica Neue&quot;, sans-serif; font-size: 12px; font-weight: 200;" x="0" y="41.99555545383009" dx="0em" dy="0.3em" fill="rgb(50, 49, 63)" stroke="none" stroke-width="1px">0.92</text><text style="text-anchor: end; visibility: hidden; font-family: &quot;Helvetica Neue&quot;, sans-serif; font-size: 12px; font-weight: 200;" x="0" y="0" dx="0em" dy="0.3em" fill="rgb(50, 49, 63)" stroke="none" stroke-width="1px">0.94</text></g><line x1="51.41600036621094" y1="0" x2="51.41600036621094" y2="377.95999908447266" fill="rgb(0, 0, 0)" stroke="rgb(204, 204, 204)" stroke-width="1px"></line></g></g><g transform="translate(51, 0)" clip-path="url(#clip_0)"><clipPath id="clip_0"><rect width="1382" height="377"></rect></clipPath><g><g><g><line x1="0" y1="0" x2="0" y2="377.95999908447266" fill="rgb(0, 0, 0)" stroke="rgb(60, 60, 60)" stroke-width="1px" opacity="0.25"></line><line x1="138.2583999633789" y1="0" x2="138.2583999633789" y2="377.95999908447266" fill="rgb(0, 0, 0)" stroke="rgb(60, 60, 60)" stroke-width="1px" opacity="0.25"></line><line x1="276.5167999267578" y1="0" x2="276.5167999267578" y2="377.95999908447266" fill="rgb(0, 0, 0)" stroke="rgb(60, 60, 60)" stroke-width="1px" opacity="0.25"></line><line x1="414.7751998901367" y1="0" x2="414.7751998901367" y2="377.95999908447266" fill="rgb(0, 0, 0)" stroke="rgb(60, 60, 60)" stroke-width="1px" opacity="0.25"></line><line x1="553.0335998535156" y1="0" x2="553.0335998535156" y2="377.95999908447266" fill="rgb(0, 0, 0)" stroke="rgb(60, 60, 60)" stroke-width="1px" opacity="0.25"></line><line x1="691.2919998168945" y1="0" x2="691.2919998168945" y2="377.95999908447266" fill="rgb(0, 0, 0)" stroke="rgb(60, 60, 60)" stroke-width="1px" opacity="0.25"></line><line x1="829.5503997802734" y1="0" x2="829.5503997802734" y2="377.95999908447266" fill="rgb(0, 0, 0)" stroke="rgb(60, 60, 60)" stroke-width="1px" opacity="0.25"></line><line x1="967.8087997436522" y1="0" x2="967.8087997436522" y2="377.95999908447266" fill="rgb(0, 0, 0)" stroke="rgb(60, 60, 60)" stroke-width="1px" opacity="0.25"></line><line x1="1106.0671997070312" y1="0" x2="1106.0671997070312" y2="377.95999908447266" fill="rgb(0, 0, 0)" stroke="rgb(60, 60, 60)" stroke-width="1px" opacity="0.25"></line><line x1="1244.3255996704102" y1="0" x2="1244.3255996704102" y2="377.95999908447266" fill="rgb(0, 0, 0)" stroke="rgb(60, 60, 60)" stroke-width="1px" opacity="0.25"></line><line x1="1382.583999633789" y1="0" x2="1382.583999633789" y2="377.95999908447266" fill="rgb(0, 0, 0)" stroke="rgb(60, 60, 60)" stroke-width="1px" opacity="0.25"></line></g><g><line x1="0" y1="377.95999908447266" x2="1382.583999633789" y2="377.95999908447266" fill="rgb(0, 0, 0)" stroke="rgb(60, 60, 60)" stroke-width="1px" opacity="0.25"></line><line x1="0" y1="335.96444363064234" x2="1382.583999633789" y2="335.96444363064234" fill="rgb(0, 0, 0)" stroke="rgb(60, 60, 60)" stroke-width="1px" opacity="0.25"></line><line x1="0" y1="293.96888817681196" x2="1382.583999633789" y2="293.96888817681196" fill="rgb(0, 0, 0)" stroke="rgb(60, 60, 60)" stroke-width="1px" opacity="0.25"></line><line x1="0" y1="251.97333272298184" x2="1382.583999633789" y2="251.97333272298184" fill="rgb(0, 0, 0)" stroke="rgb(60, 60, 60)" stroke-width="1px" opacity="0.25"></line><line x1="0" y1="209.97777726915152" x2="1382.583999633789" y2="209.97777726915152" fill="rgb(0, 0, 0)" stroke="rgb(60, 60, 60)" stroke-width="1px" opacity="0.25"></line><line x1="0" y1="167.98222181532117" x2="1382.583999633789" y2="167.98222181532117" fill="rgb(0, 0, 0)" stroke="rgb(60, 60, 60)" stroke-width="1px" opacity="0.25"></line><line x1="0" y1="125.98666636149082" x2="1382.583999633789" y2="125.98666636149082" fill="rgb(0, 0, 0)" stroke="rgb(60, 60, 60)" stroke-width="1px" opacity="0.25"></line><line x1="0" y1="83.99111090766047" x2="1382.583999633789" y2="83.99111090766047" fill="rgb(0, 0, 0)" stroke="rgb(60, 60, 60)" stroke-width="1px" opacity="0.25"></line><line x1="0" y1="41.99555545383009" x2="1382.583999633789" y2="41.99555545383009" fill="rgb(0, 0, 0)" stroke="rgb(60, 60, 60)" stroke-width="1px" opacity="0.25"></line><line x1="0" y1="0" x2="1382.583999633789" y2="0" fill="rgb(0, 0, 0)" stroke="rgb(60, 60, 60)" stroke-width="1px" opacity="0.25"></line></g></g></g><g><g><line x1="0" y1="1973.7911063300246" x2="1382.583999633789" y2="1973.7911063300246" fill="rgb(0, 0, 0)" stroke="rgb(153, 153, 153)" stroke-width="1.5px"></line></g></g><g><g><line x1="138.2583999633789" y1="0" x2="138.2583999633789" y2="377.95999908447266" fill="rgb(0, 0, 0)" stroke="rgb(153, 153, 153)" stroke-width="1.5px"></line></g></g><g><g><g><g><g><path style="fill: none;" stroke="rgb(187, 187, 187)" stroke-width="2px" d="M179.73591995239258,406.4359285639351L193.5617599487305,319.5525040469598L207.38759994506836,269.8588446108772L221.21343994140625,232.25702715993566L235.03927993774417,203.84922397984514L248.86511993408203,183.54014246924845L262.6909599304199,163.33964158715395L276.5167999267578,152.67566393536646L290.3426399230957,143.1772909921293L304.1684799194336,135.06832600208438L317.9943199157715,132.32893917588063L331.8201599121094,126.05396288593715L345.64599990844727,120.70819083327245L359.47183990478516,118.33948223789264L373.29767990112305,115.17320416842404L387.123519897461,111.78429006407345L400.9493598937988,104.56194527849522L414.7751998901367,102.0437168452815L428.6010398864746,98.39205998418942L442.4268798828125,96.55013585523625L456.2527198791504,99.28435998952784L470.07855987548834,93.64170788148141L483.9043998718261,92.35034927727565L497.73023986816406,88.06193817846014L511.55607986450195,83.18531228539109L525.3819198608398,79.23545792622838L539.2077598571777,78.12206780015083L553.0335998535156,76.40697439514099L566.8594398498535,73.14407489812658L580.6852798461914,76.7940981424806L594.5111198425293,74.23727592189726L608.3369598388672,70.70213028555065L622.1627998352051,73.09513786610188L635.988639831543,72.90215559020925L649.8144798278809,69.55202166466631L663.6403198242188,66.70424377442646L677.4661598205566,63.90190941120204L691.2919998168945,67.805042260797L705.1178398132324,70.51918748686398L718.9436798095703,66.237483924846L732.7695198059082,66.06510879659459L746.5953598022461,66.54336110745919L760.4211997985841,62.92117411506797L774.247039794922,61.51572212921258L788.0728797912597,58.25252481939145L801.8987197875977,56.13170272240751L815.7245597839355,54.34731934549461L829.5503997802734,55.74317365872366L843.3762397766113,53.416128966884855L857.2020797729492,51.438224764048925L871.0279197692871,51.39160796989199L884.853759765625,51.10766780272735L898.6795997619629,48.331194762470204L912.5054397583008,49.71357279061533L926.3312797546387,45.79616368785753L940.1571197509767,44.53928573267598L953.9829597473143,42.71482050102543L967.8087997436522,43.20247006451973L981.6346397399902,41.40084098139533L995.4604797363281,45.11320760962957L1009.286319732666,44.64150232968234L1023.1121597290039,43.381157020102705L1036.9379997253418,45.021646904710906L1050.7638397216797,44.30731670552677L1064.5896797180176,49.55631842620318" fill="none"></path></g><g><path style="fill: none;" stroke="rgb(0, 153, 136)" stroke-width="2px" d="M138.2583999633789,377.6667774106874L152.0842399597168,317.13154683794016L165.9100799560547,247.31396250575352L179.73591995239258,215.30906614296637L193.5617599487305,186.1168894339044L207.38759994506836,169.8326085204658L221.21343994140625,156.3969232029589L235.03927993774417,149.57430347947184L248.86511993408203,134.13105160088574L262.6909599304199,127.77453917050661L276.5167999267578,113.12594204459782L290.3426399230957,112.27619281793608L304.1684799194336,106.31549906126719L317.9943199157715,94.64019267226212L331.8201599121094,90.22491192583055L345.64599990844727,82.89870402226671L359.47183990478516,82.62359982878803L373.29767990112305,77.71124906087567L387.123519897461,76.71887124736975L400.9493598937988,80.73086303459291L414.7751998901367,76.92505886495525L428.6010398864746,69.6853167709462L442.4268798828125,71.13547352523727L456.2527198791504,64.257034044546L470.07855987548834,65.36550309065944L483.9043998718261,61.493150711350324L497.73023986816406,55.46996315297878L511.55607986450195,59.74422355890499L525.3819198608398,57.49210309660708L539.2077598571777,52.3713167389314L553.0335998535156,46.64617813596499L566.8594398498535,46.00333738145599L580.6852798461914,51.55120317568992L594.5111198425293,51.04057126304332L608.3369598388672,48.84938514079761L622.1627998352051,53.3286188815739L635.988639831543,52.80509363837075L649.8144798278809,50.32697239626668L663.6403198242188,52.400201573256254L677.4661598205566,53.64413907649373L691.2919998168945,51.4586352753937" fill="none"></path></g><g><path style="fill: none;" stroke="rgb(238, 51, 119)" stroke-width="2px" d="M138.2583999633789,411.871925958505L152.0842399597168,355.95403186631677L165.9100799560547,315.5971721070126L179.73591995239258,281.8596074664293L193.5617599487305,252.56578132821954L207.38759994506836,228.80588708016205L221.21343994140625,210.5877991299451L235.03927993774417,193.4569731305783L248.86511993408203,182.28326594260082L262.6909599304199,170.3139889536984L276.5167999267578,158.88191728503426L290.3426399230957,150.23034729854714L304.1684799194336,140.99736593509567L317.9943199157715,134.3475282621529L331.8201599121094,132.15344557023658L345.64599990844727,126.48518727348718L359.47183990478516,121.54927546960721L373.29767990112305,116.44726867038179L387.123519897461,116.03922504692639L400.9493598937988,113.00207099519963L414.7751998901367,111.94772668763511L428.6010398864746,107.35943630323555L442.4268798828125,104.14106502513062L456.2527198791504,105.1187095588669L470.07855987548834,100.81881890169694L483.9043998718261,98.28540056902415L497.73023986816406,98.46402826634557L511.55607986450195,97.15177890472171L525.3819198608398,95.1311871794141L539.2077598571777,92.33655363102787L553.0335998535156,91.93952439529579L566.8594398498535,90.91021756726406L580.6852798461914,90.1530089156036L594.5111198425293,89.44271364974492L608.3369598388672,88.6907791379848L622.1627998352051,88.0302065674403L635.988639831543,87.1452520182479L649.8144798278809,87.10289030225431L663.6403198242188,85.26250364869844L677.4661598205566,84.46074990872813L691.2919998168945,83.30490383501802L705.1178398132324,83.93770474123465L718.9436798095703,81.80434272362038L732.7695198059082,81.59476409737925L746.5953598022461,80.37534928986543L760.4211997985841,81.76114827472207L774.247039794922,80.26576792674012L788.0728797912597,78.90310769510188L801.8987197875977,78.17862799827685L815.7245597839355,78.41873401006592L829.5503997802734,78.49296028553556L843.3762397766113,79.86380460003187L857.2020797729492,79.6858100617867L871.0279197692871,79.62557155990851L884.853759765625,80.26417222605136L898.6795997619629,80.74044906787356L912.5054397583008,78.95527546227976L926.3312797546387,77.2791647380501L940.1571197509767,76.13387370291048L953.9829597473143,76.49380849243727L967.8087997436522,76.52363660708613L981.6346397399902,76.44841703373862L995.4604797363281,76.49640173186691L1009.286319732666,74.75673108919199L1023.1121597290039,74.38777259606331L1036.9379997253418,76.8422436465396L1050.7638397216797,74.9177280795306L1064.5896797180176,73.85608511885874L1078.4155197143555,72.66065100265052L1092.2413597106934,73.15335359206932L1106.0671997070312,73.63515796739102L1119.8930397033691,73.34251314224497L1133.718879699707,73.21343440562242L1147.544719696045,71.1116056740305L1161.3705596923828,69.68765478654245L1175.1963996887207,68.39118140431242L1189.0222396850586,69.35847972599203L1202.8480796813965,69.61305129672729L1216.6739196777344,70.0916016614409L1230.4997596740723,71.72826947741135L1244.3255996704102,69.894799420038L1258.151439666748,73.56478235318872L1271.977279663086,73.81217789246006L1285.8031196594238,72.02930010593798" fill="none"></path></g><g><path style="fill: none;" stroke="rgb(51, 187, 238)" stroke-width="2px" d="M138.2583999633789,332.2926620667707L152.0842399597168,284.4098158041388L165.9100799560547,246.3345719612778L179.73591995239258,217.5065760782837L193.5617599487305,193.41668238289046L207.38759994506836,174.28924589287794L221.21343994140625,162.6104005411029L235.03927993774417,152.33694426955472L248.86511993408203,139.8673668412857L262.6909599304199,132.5367468077804L276.5167999267578,122.91233623773945L290.3426399230957,118.20942911677861L304.1684799194336,113.99632362296887L317.9943199157715,110.3542121450293L331.8201599121094,108.380283126297L345.64599990844727,103.21642133443885L359.47183990478516,104.4477816500983L373.29767990112305,101.7655896375897L387.123519897461,100.36587340991895L400.9493598937988,94.7790887850465L414.7751998901367,97.22122117501306L428.6010398864746,95.47530855522461L442.4268798828125,91.07705919021703L456.2527198791504,92.27750110330373L470.07855987548834,88.94898812070875L483.9043998718261,90.16295730324748L497.73023986816406,89.63481492120059L511.55607986450195,86.7350984223985L525.3819198608398,85.76313015509493L539.2077598571777,82.17829519170073L553.0335998535156,81.21412888949948L566.8594398498535,78.96023397467167L580.6852798461914,80.40018903554363L594.5111198425293,78.89074400023685L608.3369598388672,79.66042205494642L622.1627998352051,78.93549485585106L635.988639831543,76.75540624196469L649.8144798278809,80.2639762887959L663.6403198242188,83.83505146163657L677.4661598205566,80.67241229370802L691.2919998168945,80.38038654736022L705.1178398132324,77.76196586970411L718.9436798095703,76.12107613229375L732.7695198059082,75.90440249969049L746.5953598022461,75.70461105114606L760.4211997985841,78.72601435145702L774.247039794922,76.14105688191779L788.0728797912597,75.49756721028507L801.8987197875977,76.22837008693989L815.7245597839355,76.66685181292621L829.5503997802734,75.4640076986953L843.3762397766113,76.34785898058055L857.2020797729492,75.48202386889346L871.0279197692871,75.3813966036891L884.853759765625,74.27391083395509L898.6795997619629,73.0509710323098L912.5054397583008,74.20196404033999L926.3312797546387,75.80004465516669L940.1571197509767,74.45526233323977L953.9829597473143,72.7409081300753L967.8087997436522,74.57437463880404L981.6346397399902,74.20852139422777L995.4604797363281,72.5230762976687L1009.286319732666,71.86084570993637L1023.1121597290039,71.6729192268985L1036.9379997253418,71.28096419847515L1050.7638397216797,72.51172433123486L1064.5896797180176,72.34269560088211L1078.4155197143555,71.26395622105906L1092.2413597106934,72.71093141438632" fill="none"></path></g></g></g></g><g opacity="0.2"><g><g><g><path style="fill: none;" stroke="rgb(187, 187, 187)" stroke-width="2px" d="M152.0842399597168,379.9936872120445L165.9100799560547,313.0377087422578L179.73591995239258,290.87424332255705L193.5617599487305,206.11750499759714L207.38759994506836,201.1146238933783L221.21343994140625,178.48582657600952L235.03927993774417,162.43037422836224L248.86511993408203,153.5881920771112L262.6909599304199,133.34425202441835L276.5167999267578,136.77641895011803L290.3426399230957,128.98142130338252L304.1684799194336,122.93135569464815L317.9943199157715,128.22522568054487L331.8201599121094,116.64887445009623L345.64599990844727,112.6933030069012L359.47183990478516,114.78742170291571L373.29767990112305,110.42459098187993L387.123519897461,106.70143517450236L400.9493598937988,93.72908825104963L414.7751998901367,98.26651230109212L428.6010398864746,92.91469485187639L442.4268798828125,93.78728602738516L456.2527198791504,103.38566380147387L470.07855987548834,85.17776982496821L483.9043998718261,90.41331687802108L497.73023986816406,81.62933250310562L511.55607986450195,75.8703809325574L525.3819198608398,73.31068002585829L539.2077598571777,76.45198322638834L553.0335998535156,73.83433485637016L566.8594398498535,68.24972630181213L580.6852798461914,82.26913257327215L594.5111198425293,70.40204277416223L608.3369598388672,65.39941198295986L622.1627998352051,76.68464917522238L635.988639831543,72.61268217935617L649.8144798278809,64.52682080745109L663.6403198242188,62.432576954928265L677.4661598205566,59.69840787573071L691.2919998168945,73.65974152736345L705.1178398132324,74.59040532269955L718.9436798095703,59.81492858491009L732.7695198059082,65.80654610429241L746.5953598022461,67.26073957363218L760.4211997985841,57.487893627045025L774.247039794922,59.40754415056108L788.0728797912597,53.35772885484323L801.8987197875977,52.95046957700248L815.7245597839355,51.67074428016116L829.5503997802734,57.83695512855019L843.3762397766113,49.925561929143555L857.2020797729492,48.471368459803784L871.0279197692871,51.321682778656L884.853759765625,50.68175755198121L898.6795997619629,44.166485202087074L912.5054397583008,51.78713983283234L926.3312797546387,39.92005003372236L940.1571197509767,42.65396879990345L953.9829597473143,39.97812265354969L967.8087997436522,43.933944409761295L981.6346397399902,38.698397356708426L995.4604797363281,50.68175755198121L1009.286319732666,43.933944409761295L1023.1121597290039,41.49063905573331L1036.9379997253418,47.48238173162383L1050.7638397216797,43.235821406750915L1064.5896797180176,57.4298210072177" fill="none"></path></g><g><path style="fill: none;" stroke="rgb(0, 153, 136)" stroke-width="2px" d="M138.2583999633789,377.66677741068764L152.0842399597168,280.810408494292L165.9100799560547,180.28908154685448L179.73591995239258,177.67130802032804L193.5617599487305,148.00358352255316L207.38759994506836,147.3055856760511L221.21343994140625,137.18367822795872L235.03927993774417,139.62685842547845L248.86511993408203,111.35525477721603L262.6909599304199,118.3358590247783L276.5167999267578,91.28590805352991L290.3426399230957,111.00619327571087L304.1684799194336,97.39392112558329L317.9943199157715,77.15010622939866L331.8201599121094,83.60718080295732L345.64599990844727,71.91455917634579L359.47183990478516,82.21105995344482L373.29767990112305,70.3439701543349L387.123519897461,75.2304557058826L400.9493598937988,86.74848400348736L414.7751998901367,71.21656132984373L428.6010398864746,58.82594185673014L442.4268798828125,73.31068002585829L456.2527198791504,53.93945630518243L470.07855987548834,67.02819878130634L483.9043998718261,55.68463865620009L497.73023986816406,46.43519722710829L511.55607986450195,66.15560760579757L525.3819198608398,54.11392447768088L539.2077598571777,44.69014003259895L553.0335998535156,38.058472130033635L566.8594398498535,45.03907637759585L580.6852798461914,59.87300120473742L594.5111198425293,50.27462343064872L608.3369598388672,45.562606051599516L622.1627998352051,60.04746937723587L635.988639831543,52.01980578166638L649.8144798278809,46.609790556115L663.6403198242188,55.51004532719338L677.4661598205566,55.51004532719338L691.2919998168945,48.18037957812595" fill="none"></path></g><g><path style="fill: none;" stroke="rgb(238, 51, 119)" stroke-width="2px" d="M138.2583999633789,411.871925958505L152.0842399597168,322.40329541100414L165.9100799560547,276.85458673808046L179.73591995239258,242.18423144910327L193.5617599487305,214.31976192217337L207.38759994506836,195.93739977316926L221.21343994140625,184.5356418717274L235.03927993774417,168.48006436757183L248.86511993408203,165.80421822121806L262.6909599304199,152.5410075725957L276.5167999267578,141.8374978306724L290.3426399230957,137.3000737806299L304.1684799194336,127.17804117602932L317.9943199157715,124.38579947700444L331.8201599121094,128.86490059420314L345.64599990844727,117.98679752327314L359.47183990478516,114.14749647624097L373.29767990112305,108.79555387051693L387.123519897461,115.42722177308224L400.9493598937988,108.44661752552003L414.7751998901367,110.36626804903608L428.6010398864746,100.47715170628607L442.4268798828125,99.3135716490994L456.2527198791504,106.5851647783395L470.07855987548834,94.36901347772437L483.9043998718261,94.48528387388728L497.73023986816406,98.73196935526846L511.55607986450195,95.1834068768976L525.3819198608398,92.10030145270315L539.2077598571777,88.1446048529998L553.0335998535156,91.34398067335718L566.8594398498535,89.3662575300138L580.6852798461914,89.01719602850864L594.5111198425293,88.37727080183384L608.3369598388672,87.5628774026606L622.1627998352051,87.03934772865699L635.988639831543,85.8178202081512L649.8144798278809,87.03934772865699L663.6403198242188,82.50192367861445L677.4661598205566,83.2581193014521L691.2919998168945,81.57113472677008L705.1178398132324,84.88690609979858L718.9436798095703,78.60429969873843L732.7695198059082,81.28039615810872L746.5953598022461,78.54622707891116L760.4211997985841,83.8398467517913L774.247039794922,78.02269740490749L788.0728797912597,76.85911734772083L801.8987197875977,77.09190845306313L815.7245597839355,78.77889302774514L829.5503997802734,78.60429969873843L843.3762397766113,81.92007107176698L857.2020797729492,79.41881825441993L871.0279197692871,79.53521380709111L884.853759765625,81.22207322526486L898.6795997619629,81.45486433060717L912.5054397583008,76.27751505388989L926.3312797546387,74.76499865170626L940.1571197509767,74.4159371502011L953.9829597473143,77.03371067672754L967.8087997436522,76.56837877905946L981.6346397399902,76.33558767371721L995.4604797363281,76.56837877905946L1009.286319732666,72.14722512517983L1023.1121597290039,73.83433485637016L1036.9379997253418,80.52395022225454L1050.7638397216797,72.03095472901697L1064.5896797180176,72.26362067785101L1078.4155197143555,70.86749982833857L1092.2413597106934,73.89240747619749L1106.0671997070312,74.35786453037377L1119.8930397033691,72.90354590452574L1133.718879699707,73.01981630068866L1147.544719696045,67.9588625766425L1161.3705596923828,67.55172845531001L1175.1963996887207,66.44647133096714L1189.0222396850586,70.80942720851124L1202.8480796813965,69.99490865282974L1216.6739196777344,70.80942720851124L1230.4997596740723,74.18327120136706L1244.3255996704102,67.14459433397752L1258.151439666748,79.06975675291477L1271.977279663086,74.18327120136706L1285.8031196594238,69.35498342615494" fill="none"></path></g><g><path style="fill: none;" stroke="rgb(51, 187, 238)" stroke-width="2px" d="M138.2583999633789,332.2926620667707L152.0842399597168,255.68010804655972L165.9100799560547,209.78233787213085L179.73591995239258,183.604852919883L193.5617599487305,161.9649171741859L207.38759994506836,147.8291153500547L221.21343994140625,145.9094648265386L235.03927993774417,137.35814640045723L248.86511993408203,121.47716222530835L262.6909599304199,121.65163039780685L276.5167999267578,108.56301307819115L290.3426399230957,111.18066144820932L304.1684799194336,107.69042190268232L317.9943199157715,104.89818020365743L331.8201599121094,105.4217098776611L345.64599990844727,95.47427060206724L359.47183990478516,106.29430105316987L373.29767990112305,97.74298262708851L387.123519897461,98.26651230109212L400.9493598937988,86.3994225019822L414.7751998901367,100.88428582761856L428.6010398864746,92.8564970755408L442.4268798828125,84.47977197846609L456.2527198791504,94.0781497525548L470.07855987548834,83.95624230446248L483.9043998718261,91.98390590003197L497.73023986816406,88.84260269950192L511.55607986450195,82.38552812594332L525.3819198608398,84.30517864945938L539.2077598571777,76.8010447278935L553.0335998535156,79.7678797559251L566.8594398498535,75.5793920508795L580.6852798461914,82.56012145495004L594.5111198425293,76.62657655539505L608.3369598388672,80.81493910393237L622.1627998352051,77.84810407590078L635.988639831543,73.485273354865L649.8144798278809,85.52683132647337L663.6403198242188,89.19166420100709L677.4661598205566,75.92845355238472L691.2919998168945,79.9423479284236L705.1178398132324,73.83433485637016L718.9436798095703,73.65974152736345L732.7695198059082,75.5793920508795L746.5953598022461,75.40492387838106L760.4211997985841,83.2581193014521L774.247039794922,72.26362067785101L788.0728797912597,74.53233270287222L801.8987197875977,77.32457440189717L815.7245597839355,77.32457440189717L829.5503997802734,73.65974152736345L843.3762397766113,77.67363590340233L857.2020797729492,74.18327120136706L871.0279197692871,75.2304557058826L884.853759765625,72.61268217935617L898.6795997619629,71.21656132984373L912.5054397583008,75.92845355238472L926.3312797546387,78.19716557740594L940.1571197509767,72.43808885034946L953.9829597473143,70.16937682532819L967.8087997436522,77.32457440189717L981.6346397399902,73.65974152736345L995.4604797363281,69.99490865282974L1009.286319732666,70.86749982833857L1023.1121597290039,71.39102950234218L1036.9379997253418,70.69303165584006L1050.7638397216797,74.35786453037377L1064.5896797180176,72.0891525053525L1078.4155197143555,69.64584715132457L1092.2413597106934,74.88139420437744" fill="none"></path></g></g></g></g></g></g><g transform="translate(51, 377)" clip-path="url(#clip_1)"><clipPath id="clip_1"><rect width="1382" height="22"></rect></clipPath><g><g><line x1="0" y1="0" x2="0" y2="5" style="visibility: inherit;" fill="rgb(0, 0, 0)" stroke="rgb(204, 204, 204)" stroke-width="1px"></line><line x1="138.2583999633789" y1="0" x2="138.2583999633789" y2="5" style="visibility: inherit;" fill="rgb(0, 0, 0)" stroke="rgb(204, 204, 204)" stroke-width="1px"></line><line x1="276.5167999267578" y1="0" x2="276.5167999267578" y2="5" style="visibility: inherit;" fill="rgb(0, 0, 0)" stroke="rgb(204, 204, 204)" stroke-width="1px"></line><line x1="414.7751998901367" y1="0" x2="414.7751998901367" y2="5" style="visibility: inherit;" fill="rgb(0, 0, 0)" stroke="rgb(204, 204, 204)" stroke-width="1px"></line><line x1="553.0335998535156" y1="0" x2="553.0335998535156" y2="5" style="visibility: inherit;" fill="rgb(0, 0, 0)" stroke="rgb(204, 204, 204)" stroke-width="1px"></line><line x1="691.2919998168945" y1="0" x2="691.2919998168945" y2="5" style="visibility: inherit;" fill="rgb(0, 0, 0)" stroke="rgb(204, 204, 204)" stroke-width="1px"></line><line x1="829.5503997802734" y1="0" x2="829.5503997802734" y2="5" style="visibility: inherit;" fill="rgb(0, 0, 0)" stroke="rgb(204, 204, 204)" stroke-width="1px"></line><line x1="967.8087997436522" y1="0" x2="967.8087997436522" y2="5" style="visibility: inherit;" fill="rgb(0, 0, 0)" stroke="rgb(204, 204, 204)" stroke-width="1px"></line><line x1="1106.0671997070312" y1="0" x2="1106.0671997070312" y2="5" style="visibility: inherit;" fill="rgb(0, 0, 0)" stroke="rgb(204, 204, 204)" stroke-width="1px"></line><line x1="1244.3255996704102" y1="0" x2="1244.3255996704102" y2="5" style="visibility: inherit;" fill="rgb(0, 0, 0)" stroke="rgb(204, 204, 204)" stroke-width="1px"></line><line x1="1382.583999633789" y1="0" x2="1382.583999633789" y2="5" style="visibility: inherit;" fill="rgb(0, 0, 0)" stroke="rgb(204, 204, 204)" stroke-width="1px"></line></g><g transform="translate(0, 8)"><text style="text-anchor: middle; visibility: hidden; font-family: &quot;Helvetica Neue&quot;, sans-serif; font-size: 12px; font-weight: 200;" x="0" y="0" dx="0em" dy="0.95em" fill="rgb(50, 49, 63)" stroke="none" stroke-width="1px">-10</text><text style="text-anchor: middle; visibility: inherit; font-family: &quot;Helvetica Neue&quot;, sans-serif; font-size: 12px; font-weight: 200;" x="138.2583999633789" y="0" dx="0em" dy="0.95em" fill="rgb(50, 49, 63)" stroke="none" stroke-width="1px">0</text><text style="text-anchor: middle; visibility: inherit; font-family: &quot;Helvetica Neue&quot;, sans-serif; font-size: 12px; font-weight: 200;" x="276.5167999267578" y="0" dx="0em" dy="0.95em" fill="rgb(50, 49, 63)" stroke="none" stroke-width="1px">10</text><text style="text-anchor: middle; visibility: inherit; font-family: &quot;Helvetica Neue&quot;, sans-serif; font-size: 12px; font-weight: 200;" x="414.7751998901367" y="0" dx="0em" dy="0.95em" fill="rgb(50, 49, 63)" stroke="none" stroke-width="1px">20</text><text style="text-anchor: middle; visibility: inherit; font-family: &quot;Helvetica Neue&quot;, sans-serif; font-size: 12px; font-weight: 200;" x="553.0335998535156" y="0" dx="0em" dy="0.95em" fill="rgb(50, 49, 63)" stroke="none" stroke-width="1px">30</text><text style="text-anchor: middle; visibility: inherit; font-family: &quot;Helvetica Neue&quot;, sans-serif; font-size: 12px; font-weight: 200;" x="691.2919998168945" y="0" dx="0em" dy="0.95em" fill="rgb(50, 49, 63)" stroke="none" stroke-width="1px">40</text><text style="text-anchor: middle; visibility: inherit; font-family: &quot;Helvetica Neue&quot;, sans-serif; font-size: 12px; font-weight: 200;" x="829.5503997802734" y="0" dx="0em" dy="0.95em" fill="rgb(50, 49, 63)" stroke="none" stroke-width="1px">50</text><text style="text-anchor: middle; visibility: inherit; font-family: &quot;Helvetica Neue&quot;, sans-serif; font-size: 12px; font-weight: 200;" x="967.8087997436522" y="0" dx="0em" dy="0.95em" fill="rgb(50, 49, 63)" stroke="none" stroke-width="1px">60</text><text style="text-anchor: middle; visibility: inherit; font-family: &quot;Helvetica Neue&quot;, sans-serif; font-size: 12px; font-weight: 200;" x="1106.0671997070312" y="0" dx="0em" dy="0.95em" fill="rgb(50, 49, 63)" stroke="none" stroke-width="1px">70</text><text style="text-anchor: middle; visibility: inherit; font-family: &quot;Helvetica Neue&quot;, sans-serif; font-size: 12px; font-weight: 200;" x="1244.3255996704102" y="0" dx="0em" dy="0.95em" fill="rgb(50, 49, 63)" stroke="none" stroke-width="1px">80</text><text style="text-anchor: middle; visibility: hidden; font-family: &quot;Helvetica Neue&quot;, sans-serif; font-size: 12px; font-weight: 200;" x="1382.583999633789" y="0" dx="0em" dy="0.95em" fill="rgb(50, 49, 63)" stroke="none" stroke-width="1px">90</text></g><line x1="0" y1="0" x2="1382.583999633789" y2="0" fill="rgb(0, 0, 0)" stroke="rgb(204, 204, 204)" stroke-width="1px"></line></g></g></g></g></svg>