<svg viewBox="0 0 1434 400" xmlns="http://www.w3.org/2000/svg"><g><g><g><g><g><line x1="51.41600036621094" y1="377.95999908447266" x2="46.41600036621094" y2="377.95999908447266" style="visibility: inherit;" fill="rgb(0, 0, 0)" stroke="rgb(204, 204, 204)" stroke-width="1px"></line><line x1="51.41600036621094" y1="340.1639991760254" x2="46.41600036621094" y2="340.1639991760254" style="visibility: inherit;" fill="rgb(0, 0, 0)" stroke="rgb(204, 204, 204)" stroke-width="1px"></line><line x1="51.41600036621094" y1="302.3679992675781" x2="46.41600036621094" y2="302.3679992675781" style="visibility: inherit;" fill="rgb(0, 0, 0)" stroke="rgb(204, 204, 204)" stroke-width="1px"></line><line x1="51.41600036621094" y1="264.5719993591308" x2="46.41600036621094" y2="264.5719993591308" style="visibility: inherit;" fill="rgb(0, 0, 0)" stroke="rgb(204, 204, 204)" stroke-width="1px"></line><line x1="51.41600036621094" y1="226.7759994506836" x2="46.41600036621094" y2="226.7759994506836" style="visibility: inherit;" fill="rgb(0, 0, 0)" stroke="rgb(204, 204, 204)" stroke-width="1px"></line><line x1="51.41600036621094" y1="188.97999954223633" x2="46.41600036621094" y2="188.97999954223633" style="visibility: inherit;" fill="rgb(0, 0, 0)" stroke="rgb(204, 204, 204)" stroke-width="1px"></line><line x1="51.41600036621094" y1="151.18399963378906" x2="46.41600036621094" y2="151.18399963378906" style="visibility: inherit;" fill="rgb(0, 0, 0)" stroke="rgb(204, 204, 204)" stroke-width="1px"></line><line x1="51.41600036621094" y1="113.38799972534179" x2="46.41600036621094" y2="113.38799972534179" style="visibility: inherit;" fill="rgb(0, 0, 0)" stroke="rgb(204, 204, 204)" stroke-width="1px"></line><line x1="51.41600036621094" y1="75.59199981689454" x2="46.41600036621094" y2="75.59199981689454" style="visibility: inherit;" fill="rgb(0, 0, 0)" stroke="rgb(204, 204, 204)" stroke-width="1px"></line><line x1="51.41600036621094" y1="37.79599990844724" x2="46.41600036621094" y2="37.79599990844724" style="visibility: inherit;" fill="rgb(0, 0, 0)" stroke="rgb(204, 204, 204)" stroke-width="1px"></line><line x1="51.41600036621094" y1="0" x2="46.41600036621094" y2="0" style="visibility: inherit;" fill="rgb(0, 0, 0)" stroke="rgb(204, 204, 204)" stroke-width="1px"></line></g><g transform="translate(41.41600036621094, 0)"><text style="text-anchor: end; visibility: hidden; font-family: &quot;Helvetica Neue&quot;, sans-serif; font-size: 12px; font-weight: 200;" x="0" y="377.95999908447266" dx="0em" dy="0.3em" fill="rgb(50, 49, 63)" stroke="none" stroke-width="1px">-0.1</text><text style="text-anchor: end; visibility: inherit; font-family: &quot;Helvetica Neue&quot;, sans-serif; font-size: 12px; font-weight: 200;" x="0" y="340.1639991760254" dx="0em" dy="0.3em" fill="rgb(50, 49, 63)" stroke="none" stroke-width="1px">0</text><text style="text-anchor: end; visibility: inherit; font-family: &quot;Helvetica Neue&quot;, sans-serif; font-size: 12px; font-weight: 200;" x="0" y="302.3679992675781" dx="0em" dy="0.3em" fill="rgb(50, 49, 63)" stroke="none" stroke-width="1px">0.1</text><text style="text-anchor: end; visibility: inherit; font-family: &quot;Helvetica Neue&quot;, sans-serif; font-size: 12px; font-weight: 200;" x="0" y="264.5719993591308" dx="0em" dy="0.3em" fill="rgb(50, 49, 63)" stroke="none" stroke-width="1px">0.2</text><text style="text-anchor: end; visibility: inherit; font-family: &quot;Helvetica Neue&quot;, sans-serif; font-size: 12px; font-weight: 200;" x="0" y="226.7759994506836" dx="0em" dy="0.3em" fill="rgb(50, 49, 63)" stroke="none" stroke-width="1px">0.3</text><text style="text-anchor: end; visibility: inherit; font-family: &quot;Helvetica Neue&quot;, sans-serif; font-size: 12px; font-weight: 200;" x="0" y="188.97999954223633" dx="0em" dy="0.3em" fill="rgb(50, 49, 63)" stroke="none" stroke-width="1px">0.4</text><text style="text-anchor: end; visibility: inherit; font-family: &quot;Helvetica Neue&quot;, sans-serif; font-size: 12px; font-weight: 200;" x="0" y="151.18399963378906" dx="0em" dy="0.3em" fill="rgb(50, 49, 63)" stroke="none" stroke-width="1px">0.5</text><text style="text-anchor: end; visibility: inherit; font-family: &quot;Helvetica Neue&quot;, sans-serif; font-size: 12px; font-weight: 200;" x="0" y="113.38799972534179" dx="0em" dy="0.3em" fill="rgb(50, 49, 63)" stroke="none" stroke-width="1px">0.6</text><text style="text-anchor: end; visibility: inherit; font-family: &quot;Helvetica Neue&quot;, sans-serif; font-size: 12px; font-weight: 200;" x="0" y="75.59199981689454" dx="0em" dy="0.3em" fill="rgb(50, 49, 63)" stroke="none" stroke-width="1px">0.7</text><text style="text-anchor: end; visibility: inherit; font-family: &quot;Helvetica Neue&quot;, sans-serif; font-size: 12px; font-weight: 200;" x="0" y="37.79599990844724" dx="0em" dy="0.3em" fill="rgb(50, 49, 63)" stroke="none" stroke-width="1px">0.8</text><text style="text-anchor: end; visibility: hidden; font-family: &quot;Helvetica Neue&quot;, sans-serif; font-size: 12px; font-weight: 200;" x="0" y="0" dx="0em" dy="0.3em" fill="rgb(50, 49, 63)" stroke="none" stroke-width="1px">0.9</text></g><line x1="51.41600036621094" y1="0" x2="51.41600036621094" y2="377.95999908447266" fill="rgb(0, 0, 0)" stroke="rgb(204, 204, 204)" stroke-width="1px"></line></g></g><g transform="translate(51, 0)" clip-path="url(#clip_0)"><clipPath id="clip_0"><rect width="1382" height="377"></rect></clipPath><g><g><g><line x1="0" y1="0" x2="0" y2="377.95999908447266" fill="rgb(0, 0, 0)" stroke="rgb(60, 60, 60)" stroke-width="1px" opacity="0.25"></line><line x1="138.2583999633789" y1="0" x2="138.2583999633789" y2="377.95999908447266" fill="rgb(0, 0, 0)" stroke="rgb(60, 60, 60)" stroke-width="1px" opacity="0.25"></line><line x1="276.5167999267578" y1="0" x2="276.5167999267578" y2="377.95999908447266" fill="rgb(0, 0, 0)" stroke="rgb(60, 60, 60)" stroke-width="1px" opacity="0.25"></line><line x1="414.7751998901367" y1="0" x2="414.7751998901367" y2="377.95999908447266" fill="rgb(0, 0, 0)" stroke="rgb(60, 60, 60)" stroke-width="1px" opacity="0.25"></line><line x1="553.0335998535156" y1="0" x2="553.0335998535156" y2="377.95999908447266" fill="rgb(0, 0, 0)" stroke="rgb(60, 60, 60)" stroke-width="1px" opacity="0.25"></line><line x1="691.2919998168945" y1="0" x2="691.2919998168945" y2="377.95999908447266" fill="rgb(0, 0, 0)" stroke="rgb(60, 60, 60)" stroke-width="1px" opacity="0.25"></line><line x1="829.5503997802734" y1="0" x2="829.5503997802734" y2="377.95999908447266" fill="rgb(0, 0, 0)" stroke="rgb(60, 60, 60)" stroke-width="1px" opacity="0.25"></line><line x1="967.8087997436522" y1="0" x2="967.8087997436522" y2="377.95999908447266" fill="rgb(0, 0, 0)" stroke="rgb(60, 60, 60)" stroke-width="1px" opacity="0.25"></line><line x1="1106.0671997070312" y1="0" x2="1106.0671997070312" y2="377.95999908447266" fill="rgb(0, 0, 0)" stroke="rgb(60, 60, 60)" stroke-width="1px" opacity="0.25"></line><line x1="1244.3255996704102" y1="0" x2="1244.3255996704102" y2="377.95999908447266" fill="rgb(0, 0, 0)" stroke="rgb(60, 60, 60)" stroke-width="1px" opacity="0.25"></line><line x1="1382.583999633789" y1="0" x2="1382.583999633789" y2="377.95999908447266" fill="rgb(0, 0, 0)" stroke="rgb(60, 60, 60)" stroke-width="1px" opacity="0.25"></line></g><g><line x1="0" y1="377.95999908447266" x2="1382.583999633789" y2="377.95999908447266" fill="rgb(0, 0, 0)" stroke="rgb(60, 60, 60)" stroke-width="1px" opacity="0.25"></line><line x1="0" y1="340.1639991760254" x2="1382.583999633789" y2="340.1639991760254" fill="rgb(0, 0, 0)" stroke="rgb(60, 60, 60)" stroke-width="1px" opacity="0.25"></line><line x1="0" y1="302.3679992675781" x2="1382.583999633789" y2="302.3679992675781" fill="rgb(0, 0, 0)" stroke="rgb(60, 60, 60)" stroke-width="1px" opacity="0.25"></line><line x1="0" y1="264.5719993591308" x2="1382.583999633789" y2="264.5719993591308" fill="rgb(0, 0, 0)" stroke="rgb(60, 60, 60)" stroke-width="1px" opacity="0.25"></line><line x1="0" y1="226.7759994506836" x2="1382.583999633789" y2="226.7759994506836" fill="rgb(0, 0, 0)" stroke="rgb(60, 60, 60)" stroke-width="1px" opacity="0.25"></line><line x1="0" y1="188.97999954223633" x2="1382.583999633789" y2="188.97999954223633" fill="rgb(0, 0, 0)" stroke="rgb(60, 60, 60)" stroke-width="1px" opacity="0.25"></line><line x1="0" y1="151.18399963378906" x2="1382.583999633789" y2="151.18399963378906" fill="rgb(0, 0, 0)" stroke="rgb(60, 60, 60)" stroke-width="1px" opacity="0.25"></line><line x1="0" y1="113.38799972534179" x2="1382.583999633789" y2="113.38799972534179" fill="rgb(0, 0, 0)" stroke="rgb(60, 60, 60)" stroke-width="1px" opacity="0.25"></line><line x1="0" y1="75.59199981689454" x2="1382.583999633789" y2="75.59199981689454" fill="rgb(0, 0, 0)" stroke="rgb(60, 60, 60)" stroke-width="1px" opacity="0.25"></line><line x1="0" y1="37.79599990844724" x2="1382.583999633789" y2="37.79599990844724" fill="rgb(0, 0, 0)" stroke="rgb(60, 60, 60)" stroke-width="1px" opacity="0.25"></line><line x1="0" y1="0" x2="1382.583999633789" y2="0" fill="rgb(0, 0, 0)" stroke="rgb(60, 60, 60)" stroke-width="1px" opacity="0.25"></line></g></g></g><g><g><line x1="0" y1="340.1639991760254" x2="1382.583999633789" y2="340.1639991760254" fill="rgb(0, 0, 0)" stroke="rgb(153, 153, 153)" stroke-width="1.5px"></line></g></g><g><g><line x1="138.2583999633789" y1="0" x2="138.2583999633789" y2="377.95999908447266" fill="rgb(0, 0, 0)" stroke="rgb(153, 153, 153)" stroke-width="1.5px"></line></g></g><g><g><g><g><g><path style="fill: none;" stroke="rgb(187, 187, 187)" stroke-width="2px" d="M179.73591995239258,-3.845998022705089L193.5617599487305,67.77814797153496L207.38759994506836,113.27381115198733L221.21343994140625,143.6770499319765L235.03927993774417,164.3808259948414L248.86511993408203,179.21237934225687L262.6909599304199,189.65993933726492L276.5167999267578,197.70649048492908L290.3426399230957,203.8921684282475L304.1684799194336,208.78612027830832L317.9943199157715,213.00719874392087L331.8201599121094,216.62840139186207L345.64599990844727,219.74794793738766L359.47183990478516,222.28558162166087L373.29767990112305,224.92217584512883L387.123519897461,227.60847190592065L400.9493598937988,230.02911142878466L414.7751998901367,231.98253459930095L428.6010398864746,234.17549267199325L442.4268798828125,236.04598261235108L456.2527198791504,237.93087186899535L470.07855987548834,239.63869825680425L483.9043998718261,241.31378490788043L497.73023986816406,242.7980413071769L511.55607986450195,244.3691616417339L525.3819198608398,245.9934458325725L539.2077598571777,247.4640503647294L553.0335998535156,248.7687395515266L566.8594398498535,250.11216429204447L580.6852798461914,251.71526130748327L594.5111198425293,252.96238920580413L608.3369598388672,254.38690081546213L622.1627998352051,255.78491517725138L635.988639831543,257.01038380595037L649.8144798278809,258.2695485968702L663.6403198242188,259.5636983026471L677.4661598205566,260.7280714229592L691.2919998168945,262.0479681965861L705.1178398132324,263.3073455432636L718.9436798095703,264.51741473183785L732.7695198059082,265.65714105780467L746.5953598022461,266.95019042506345L760.4211997985841,268.1134009653055L774.247039794922,269.42514561942045L788.0728797912597,270.67668050435793L801.8987197875977,271.7069102110082L815.7245597839355,272.775825482317L829.5503997802734,273.84639713794604L843.3762397766113,274.96872985860966L857.2020797729492,276.0292197975429L871.0279197692871,277.33509156813744L884.853759765625,278.51930068852107L898.6795997619629,279.50660727561234L912.5054397583008,280.5359093440934L926.3312797546387,281.88999057862964L940.1571197509767,283.02154636279823L953.9829597473143,284.15127530316045L967.8087997436522,285.4159107084921L981.6346397399902,286.6692438890269L995.4604797363281,287.67938735594L1009.286319732666,288.6003384248442L1023.1121597290039,289.6478507408893L1036.9379997253418,290.9506330615059L1050.7638397216797,292.1357583505875L1064.5896797180176,293.20129402699445" fill="none"></path></g><g><path style="fill: none;" stroke="rgb(0, 153, 136)" stroke-width="2px" d="M152.0842399597168,-20.044670929098174L165.9100799560547,72.97014492130882L179.73591995239258,123.49511214467302L193.5617599487305,154.82982721634974L207.38759994506836,175.69158971262317L221.21343994140625,190.535923938229L235.03927993774417,201.6308463150068L248.86511993408203,209.89482954084815L262.6909599304199,216.66417174472758L276.5167999267578,222.32662400872084L290.3426399230957,227.1853578355918L304.1684799194336,231.44948000385446L317.9943199157715,235.16696240194062L331.8201599121094,238.5951088274461L345.64599990844727,241.8898658660183L359.47183990478516,245.11093394151007L373.29767990112305,247.89895294701554L387.123519897461,250.67503289252716L400.9493598937988,253.29327648676224L414.7751998901367,255.7853472525277L428.6010398864746,258.27648873174513L442.4268798828125,260.7727270031321L456.2527198791504,262.95596356908123L470.07855987548834,265.2379381833177L483.9043998718261,267.3318918634151L497.73023986816406,269.4938884475888L511.55607986450195,271.5758498118673L525.3819198608398,273.7681950927122L539.2077598571777,275.75567807426853L553.0335998535156,277.8493936848853L566.8594398498535,279.97102012180346L580.6852798461914,282.0451382428505L594.5111198425293,284.18588562183925L608.3369598388672,285.9891375328359L622.1627998352051,287.94681501466744L635.988639831543,290.0103403396064L649.8144798278809,291.98156390634944L663.6403198242188,293.8580159126459L677.4661598205566,295.9069203683232L691.2919998168945,298.16248207799265" fill="none"></path></g><g><path style="fill: none;" stroke="rgb(238, 51, 119)" stroke-width="2px" d="M152.0842399597168,-50.84836908725276L165.9100799560547,20.275078297198775L179.73591995239258,63.61166717228059L193.5617599487305,92.934995976815L207.38759994506836,113.80491021313503L221.21343994140625,129.40341927852805L235.03927993774417,141.7118299570303L248.86511993408203,151.3719068567464L262.6909599304199,159.43721648970174L276.5167999267578,166.18395164962868L290.3426399230957,171.55588683828404L304.1684799194336,176.73574668943525L317.9943199157715,180.68901448767966L331.8201599121094,184.49537827391353L345.64599990844727,188.20529772876603L359.47183990478516,190.81892273320196L373.29767990112305,194.25351722885003L387.123519897461,196.71499094664583L400.9493598937988,198.58714051516498L414.7751998901367,200.43732791555826L428.6010398864746,202.63952241741512L442.4268798828125,204.73910745421077L456.2527198791504,206.54453683101534L470.07855987548834,207.84930011070563L483.9043998718261,209.4791578238599L497.73023986816406,210.47040736356632L511.55607986450195,211.9351589100175L525.3819198608398,213.773664664709L539.2077598571777,214.5303023524892L553.0335998535156,216.02793408000738L566.8594398498535,217.2857111953894L580.6852798461914,217.85308718515415L594.5111198425293,218.82741046907273L608.3369598388672,219.62455321753603L622.1627998352051,220.9545299065119L635.988639831543,221.64682724676035L649.8144798278809,222.3132505808569L663.6403198242188,223.27062275760892L677.4661598205566,224.27397794230347L691.2919998168945,225.3183136771822L705.1178398132324,225.5796478505784L718.9436798095703,226.30144588426734L732.7695198059082,227.1135792121809L746.5953598022461,227.62320264931986L760.4211997985841,228.52303558239032L774.247039794922,229.1102309854135L788.0728797912597,229.93596423407283L801.8987197875977,230.34864469248913L815.7245597839355,230.75857745435277L829.5503997802734,231.38141089223882L843.3762397766113,231.75230845043583L857.2020797729492,232.47551757406526L871.0279197692871,232.77056137667293L884.853759765625,232.75742736273452L898.6795997619629,233.8392210921857L912.5054397583008,234.4887028369429L926.3312797546387,235.18844260230733L940.1571197509767,235.6471250291656L953.9829597473143,236.39476826385268L967.8087997436522,236.66062820575215L981.6346397399902,237.13766523106636L995.4604797363281,237.56432806729072L1009.286319732666,237.34084517841276L1023.1121597290039,238.16882100834172L1036.9379997253418,238.89702940069319L1050.7638397216797,239.04764390470456L1064.5896797180176,239.40562926181283L1078.4155197143555,239.58644799347883L1092.2413597106934,239.96741296095203L1106.0671997070312,240.43170419968075L1119.8930397033691,240.87102195209587L1133.718879699707,240.63514501919116L1147.544719696045,241.1242049074776L1161.3705596923828,241.50413099641366L1175.1963996887207,241.93198812662794L1189.0222396850586,242.46145998819082L1202.8480796813965,242.62769521950526L1216.6739196777344,243.02580396707208L1230.4997596740723,243.32904121281268L1244.3255996704102,243.92921455823685L1258.151439666748,244.16214703746002L1271.977279663086,244.56478325241505L1285.8031196594238,245.00813179083963" fill="none"></path></g><g><path style="fill: none;" stroke="rgb(51, 187, 238)" stroke-width="2px" d="M138.2583999633789,-73.4418750853169L152.0842399597168,35.512176674354805L165.9100799560547,84.98067495982514L179.73591995239258,114.40277286119647L193.5617599487305,135.53387204997284L207.38759994506836,150.44750840055764L221.21343994140625,162.61801342961903L235.03927993774417,171.95115266992713L248.86511993408203,179.87044569329402L262.6909599304199,185.92548780510052L276.5167999267578,191.22549260677013L290.3426399230957,195.47648094378965L304.1684799194336,199.299263991606L317.9943199157715,202.60257617782204L331.8201599121094,205.66548363678646L345.64599990844727,208.42319320387352L359.47183990478516,210.69575635571456L373.29767990112305,212.8219789653204L387.123519897461,214.821754983244L400.9493598937988,216.32925262960828L414.7751998901367,217.87876570973594L428.6010398864746,219.19982536053425L442.4268798828125,220.8583857054151L456.2527198791504,222.53637267664158L470.07855987548834,223.57427576967842L483.9043998718261,225.1995661345743L497.73023986816406,226.02330856106977L511.55607986450195,227.12253437722254L525.3819198608398,228.33969144658L539.2077598571777,229.52116169687633L553.0335998535156,230.7927343993374L566.8594398498535,231.18139033639721L580.6852798461914,231.951628478872L594.5111198425293,232.74931494779344L608.3369598388672,233.8144027128634L622.1627998352051,234.23437339587275L635.988639831543,234.9057762909359L649.8144798278809,235.71066929202698L663.6403198242188,236.54339099892303L677.4661598205566,236.6679119436138L691.2919998168945,237.1825771716001L705.1178398132324,237.8300693440264L718.9436798095703,238.61101440592887L732.7695198059082,239.38063891543163L746.5953598022461,240.37867872076066L760.4211997985841,240.51033591178356L774.247039794922,240.80049578899494L788.0728797912597,241.3140777426946L801.8987197875977,242.04723438687515L815.7245597839355,242.2398501518901L829.5503997802734,242.8611725550986L843.3762397766113,243.30713299237007L857.2020797729492,243.89849765221425L871.0279197692871,244.26512571561238L884.853759765625,244.7082485978418L898.6795997619629,245.4064965112174L912.5054397583008,245.48853645468822L926.3312797546387,246.21657477831465L940.1571197509767,246.53123200416297L953.9829597473143,246.98610432026103L967.8087997436522,247.48899753725323L981.6346397399902,248.007625691235L995.4604797363281,248.48396111441298L1009.286319732666,248.32522071886288L1023.1121597290039,248.66656793927268L1036.9379997253418,249.86706738353243L1050.7638397216797,249.92372316322226L1064.5896797180176,249.91889608593368L1078.4155197143555,250.09060217983586L1092.2413597106934,250.79196956517745" fill="none"></path></g></g></g></g><g opacity="0.2"><g><g><g><path style="fill: none;" stroke="rgb(187, 187, 187)" stroke-width="2px" d="M152.0842399597168,-274.3367541877727L165.9100799560547,107.05115399798899L179.73591995239258,140.16641714380657L193.5617599487305,161.29063298161472L207.38759994506836,176.210691769298L221.21343994140625,187.15416783918144L235.03927993774417,194.5671302507486L248.86511993408203,201.08603964877247L262.6909599304199,205.17334832941978L276.5167999267578,209.70333557974217L290.3426399230957,213.13702315701707L304.1684799194336,216.11106845148888L317.9943199157715,219.33054691020115L331.8201599121094,222.05594877599592L345.64599990844727,224.42506760975957L359.47183990478516,226.0909583065414L373.29767990112305,228.876397749343L387.123519897461,231.63750676694107L400.9493598937988,233.65984945704017L414.7751998901367,234.9125622247062L428.6010398864746,237.46485762081224L442.4268798828125,238.8516805933269L456.2527198791504,240.75818342565148L470.07855987548834,242.2004257000186L483.9043998718261,243.82640774101523L497.73023986816406,245.02442210831632L511.55607986450195,246.7258397315296L525.3819198608398,248.4298706226351L539.2077598571777,249.66995635018392L553.0335998535156,250.72577289907338L566.8594398498535,252.1273011355247L580.6852798461914,254.11990663926395L594.5111198425293,254.83308096395626L608.3369598388672,256.52366816872825L622.1627998352051,257.881936683886L635.988639831543,258.84858673003885L649.8144798278809,260.15829577156126L663.6403198242188,261.5049228541043L677.4661598205566,262.47463109953617L691.2919998168945,264.0278133543799L705.1178398132324,265.19641156176476L718.9436798095703,266.3325185138258L732.7695198059082,267.36673054626135L746.5953598022461,268.8897644756156L760.4211997985841,269.8582167754872L774.247039794922,271.3927626004702L788.0728797912597,272.5539828316938L801.8987197875977,273.252254770949L815.7245597839355,274.3791983892586L829.5503997802734,275.4522546213767L843.3762397766113,276.65222893959697L857.2020797729492,277.6199547059382L871.0279197692871,279.29389922402584L884.853759765625,280.29561436909466L898.6795997619629,280.98756715624836L912.5054397583008,282.07986244681445L926.3312797546387,283.9211124304335L940.1571197509767,284.718880039051L953.9829597473143,285.84586871370357L967.8087997436522,287.31286381648954L981.6346397399902,288.54924365982913L995.4604797363281,289.1946025563095L1009.286319732666,289.9817650282006L1023.1121597290039,291.2191192149569L1036.9379997253418,292.90480654243095L1050.7638397216797,293.91344628420984L1064.5896797180176,294.79959754160484" fill="none"></path></g><g><path style="fill: none;" stroke="rgb(0, 153, 136)" stroke-width="2px" d="M138.2583999633789,-257.56750423602205L152.0842399597168,122.46902905505621L165.9100799560547,162.2643681376995L179.73591995239258,182.91247359934923L193.5617599487305,195.74043121393092L207.38759994506836,204.55091747946798L221.21343994140625,211.76355939019285L235.03927993774417,217.80734965160363L248.86511993408203,222.08259960286236L262.6909599304199,226.7158559912708L276.5167999267578,230.76894437943278L290.3426399230957,234.4470175609741L304.1684799194336,237.83174015752692L317.9943199157715,240.73590306405308L331.8201599121094,243.7332988082688L345.64599990844727,246.8296777059456L359.47183990478516,249.94117300668867L373.29767990112305,252.08027357755032L387.123519897461,254.83872990295606L400.9493598937988,257.2204025602796L414.7751998901367,259.52331673009246L428.6010398864746,262.01311897849985L442.4268798828125,264.5170351263424L456.2527198791504,266.23079255548646L470.07855987548834,268.66088388537355L483.9043998718261,270.4728134538052L497.73023986816406,272.73687779189265L511.55607986450195,274.69878866198394L525.3819198608398,277.0567109945197L539.2077598571777,278.73690144815146L553.0335998535156,280.9899664065115L566.8594398498535,283.1534593550482L580.6852798461914,285.156315176813L594.5111198425293,287.39700653698503L608.3369598388672,288.6940153218329L622.1627998352051,290.883331186934L635.988639831543,293.10562829508876L649.8144798278809,294.9383992381652L663.6403198242188,296.67269391163904L677.4661598205566,298.98027704499214L691.2919998168945,301.5458246379741" fill="none"></path></g><g><path style="fill: none;" stroke="rgb(238, 51, 119)" stroke-width="2px" d="M138.2583999633789,-194.6524038854526L152.0842399597168,35.43405179166723L165.9100799560547,88.55358778627226L179.73591995239258,114.57549568937668L193.5617599487305,131.21953406401516L207.38759994506836,142.67551477109063L221.21343994140625,151.709536818185L235.03927993774417,159.6576108870291L248.86511993408203,165.6186439104907L262.6909599304199,171.41326133119455L276.5167999267578,176.2428619981782L290.3426399230957,179.58455578719517L304.1684799194336,184.48862332502162L317.9943199157715,186.61117132188483L331.8201599121094,190.20044971551906L345.64599990844727,193.7675603884123L359.47183990478516,194.73825424134665L373.29767990112305,199.4045369291517L387.123519897461,200.4068265425934L400.9493598937988,201.39519374605752L414.7751998901367,203.21250754747402L428.6010398864746,205.94274170605226L442.4268798828125,207.88844355676028L456.2527198791504,209.25265950919L470.07855987548834,209.80643575654207L483.9043998718261,211.9239374429927L497.73023986816406,211.9572791367901L511.55607986450195,214.13228398095552L525.3819198608398,216.53142160322258L539.2077598571777,215.66525846597742L553.0335998535156,218.2743811746537L566.8594398498535,219.1723766182068L580.6852798461914,218.70415110206804L594.5111198425293,220.28889532516186L608.3369598388672,220.82026730597235L622.1627998352051,222.94949490568078L635.988639831543,222.68527324642204L649.8144798278809,223.31288557581533L663.6403198242188,224.70668101740452L677.4661598205566,225.77901071599226L691.2919998168945,226.8848172774063L705.1178398132324,225.97164911035824L718.9436798095703,227.38414293427977L732.7695198059082,228.33177920369948L746.5953598022461,228.3876378048959L760.4211997985841,229.8727849818557L774.247039794922,229.99102408989333L788.0728797912597,231.17456410701547L801.8987197875977,230.96766538009965L815.7245597839355,231.37347659713996L829.5503997802734,232.31566104906037L843.3762397766113,232.3086547877286L857.2020797729492,233.56033125950634L871.0279197692871,233.21312708058358L884.853759765625,232.7377263418269L898.6795997619629,235.4619116863615L912.5054397583008,235.46292545407832L926.3312797546387,236.23805225035366L940.1571197509767,236.33514866945288L953.9829597473143,237.51623311588318L967.8087997436522,237.05941811860143L981.6346397399902,237.85322076903762L995.4604797363281,238.20432232162725L1009.286319732666,237.00562084509588L1023.1121597290039,239.4107847532351L1036.9379997253418,239.98934198922038L1050.7638397216797,239.27356566072157L1064.5896797180176,239.9426072974753L1078.4155197143555,239.85767609097783L1092.2413597106934,240.53886041216182L1106.0671997070312,241.12814105777383L1119.8930397033691,241.52999858071857L1133.718879699707,240.28132961983405L1147.544719696045,241.85779473990723L1161.3705596923828,242.07402012981774L1175.1963996887207,242.5737738219494L1189.0222396850586,243.25566778053516L1202.8480796813965,242.87704806647693L1216.6739196777344,243.6229670884223L1230.4997596740723,243.78389708142353L1244.3255996704102,244.82947457637314L1258.151439666748,244.5115457562948L1271.977279663086,245.16873757484754L1285.8031196594238,245.67315459847654" fill="none"></path></g><g><path style="fill: none;" stroke="rgb(51, 187, 238)" stroke-width="2px" d="M138.2583999633789,-73.4418750853169L152.0842399597168,100.88460773015788L165.9100799560547,132.47043331387667L179.73591995239258,149.0031599932091L193.5617599487305,163.12263515083927L207.38759994506836,171.07843638250264L221.21343994140625,180.02203034925728L235.03927993774417,185.55895928043296L248.86511993408203,191.54986465928332L262.6909599304199,194.91651966230538L276.5167999267578,199.1274291558037L290.3426399230957,201.82982975851255L304.1684799194336,205.02095651341128L317.9943199157715,207.5510729246906L331.8201599121094,210.25624449249207L345.64599990844727,212.55781260405874L359.47183990478516,214.10363941091268L373.29767990112305,216.01077303203883L387.123519897461,217.8211143643808L400.9493598937988,218.59036130789863L414.7751998901367,220.2029503509476L428.6010398864746,221.1813713667012L442.4268798828125,223.3461934773555L456.2527198791504,225.0533332561259L470.07855987548834,225.1311230322627L483.9043998718261,227.63749475079712L497.73023986816406,227.25892009308185L511.55607986450195,228.77137141388116L525.3819198608398,230.16542592944242L539.2077598571777,231.29336641934023L553.0335998535156,232.70009303136166L566.8594398498535,231.76437416465737L580.6852798461914,233.10698560063324L594.5111198425293,233.9458445940389L608.3369598388672,235.4120343146943L622.1627998352051,234.86432940955737L635.988639831543,235.91288062314297L649.8144798278809,236.91800878619173L663.6403198242188,237.79247355462903L677.4661598205566,236.85469336023388L691.2919998168945,237.95457501254745L705.1178398132324,238.80130760188703L718.9436798095703,239.7824319982188L732.7695198059082,240.5350756793524L746.5953598022461,241.87573842849483L760.4211997985841,240.70782169829735L774.247039794922,241.23573560478494L788.0728797912597,242.08445067321517L801.8987197875977,243.1469693531213L815.7245597839355,242.52877379940864L829.5503997802734,243.79315615990376L843.3762397766113,243.97607364827408L857.2020797729492,244.7855446419779L871.0279197692871,244.81506781070865L884.853759765625,245.3729329211852L898.6795997619629,246.4538683812801L912.5054397583008,245.6115963698945L926.3312797546387,247.308632263754L940.1571197509767,247.0032178429354L953.9829597473143,247.6684127944081L967.8087997436522,248.24333736274147L981.6346397399902,248.7855679222076L995.4604797363281,249.19846424917986L1009.286319732666,248.0871101255377L1023.1121597290039,249.17858876988745L1036.9379997253418,251.667816549922L1050.7638397216797,250.00870683275707L1064.5896797180176,249.9116554700008L1078.4155197143555,250.3481613206891L1092.2413597106934,251.84402064318988" fill="none"></path></g></g></g></g></g></g><g transform="translate(51, 377)" clip-path="url(#clip_1)"><clipPath id="clip_1"><rect width="1382" height="22"></rect></clipPath><g><g><line x1="0" y1="0" x2="0" y2="5" style="visibility: inherit;" fill="rgb(0, 0, 0)" stroke="rgb(204, 204, 204)" stroke-width="1px"></line><line x1="138.2583999633789" y1="0" x2="138.2583999633789" y2="5" style="visibility: inherit;" fill="rgb(0, 0, 0)" stroke="rgb(204, 204, 204)" stroke-width="1px"></line><line x1="276.5167999267578" y1="0" x2="276.5167999267578" y2="5" style="visibility: inherit;" fill="rgb(0, 0, 0)" stroke="rgb(204, 204, 204)" stroke-width="1px"></line><line x1="414.7751998901367" y1="0" x2="414.7751998901367" y2="5" style="visibility: inherit;" fill="rgb(0, 0, 0)" stroke="rgb(204, 204, 204)" stroke-width="1px"></line><line x1="553.0335998535156" y1="0" x2="553.0335998535156" y2="5" style="visibility: inherit;" fill="rgb(0, 0, 0)" stroke="rgb(204, 204, 204)" stroke-width="1px"></line><line x1="691.2919998168945" y1="0" x2="691.2919998168945" y2="5" style="visibility: inherit;" fill="rgb(0, 0, 0)" stroke="rgb(204, 204, 204)" stroke-width="1px"></line><line x1="829.5503997802734" y1="0" x2="829.5503997802734" y2="5" style="visibility: inherit;" fill="rgb(0, 0, 0)" stroke="rgb(204, 204, 204)" stroke-width="1px"></line><line x1="967.8087997436522" y1="0" x2="967.8087997436522" y2="5" style="visibility: inherit;" fill="rgb(0, 0, 0)" stroke="rgb(204, 204, 204)" stroke-width="1px"></line><line x1="1106.0671997070312" y1="0" x2="1106.0671997070312" y2="5" style="visibility: inherit;" fill="rgb(0, 0, 0)" stroke="rgb(204, 204, 204)" stroke-width="1px"></line><line x1="1244.3255996704102" y1="0" x2="1244.3255996704102" y2="5" style="visibility: inherit;" fill="rgb(0, 0, 0)" stroke="rgb(204, 204, 204)" stroke-width="1px"></line><line x1="1382.583999633789" y1="0" x2="1382.583999633789" y2="5" style="visibility: inherit;" fill="rgb(0, 0, 0)" stroke="rgb(204, 204, 204)" stroke-width="1px"></line></g><g transform="translate(0, 8)"><text style="text-anchor: middle; visibility: hidden; font-family: &quot;Helvetica Neue&quot;, sans-serif; font-size: 12px; font-weight: 200;" x="0" y="0" dx="0em" dy="0.95em" fill="rgb(50, 49, 63)" stroke="none" stroke-width="1px">-10</text><text style="text-anchor: middle; visibility: inherit; font-family: &quot;Helvetica Neue&quot;, sans-serif; font-size: 12px; font-weight: 200;" x="138.2583999633789" y="0" dx="0em" dy="0.95em" fill="rgb(50, 49, 63)" stroke="none" stroke-width="1px">0</text><text style="text-anchor: middle; visibility: inherit; font-family: &quot;Helvetica Neue&quot;, sans-serif; font-size: 12px; font-weight: 200;" x="276.5167999267578" y="0" dx="0em" dy="0.95em" fill="rgb(50, 49, 63)" stroke="none" stroke-width="1px">10</text><text style="text-anchor: middle; visibility: inherit; font-family: &quot;Helvetica Neue&quot;, sans-serif; font-size: 12px; font-weight: 200;" x="414.7751998901367" y="0" dx="0em" dy="0.95em" fill="rgb(50, 49, 63)" stroke="none" stroke-width="1px">20</text><text style="text-anchor: middle; visibility: inherit; font-family: &quot;Helvetica Neue&quot;, sans-serif; font-size: 12px; font-weight: 200;" x="553.0335998535156" y="0" dx="0em" dy="0.95em" fill="rgb(50, 49, 63)" stroke="none" stroke-width="1px">30</text><text style="text-anchor: middle; visibility: inherit; font-family: &quot;Helvetica Neue&quot;, sans-serif; font-size: 12px; font-weight: 200;" x="691.2919998168945" y="0" dx="0em" dy="0.95em" fill="rgb(50, 49, 63)" stroke="none" stroke-width="1px">40</text><text style="text-anchor: middle; visibility: inherit; font-family: &quot;Helvetica Neue&quot;, sans-serif; font-size: 12px; font-weight: 200;" x="829.5503997802734" y="0" dx="0em" dy="0.95em" fill="rgb(50, 49, 63)" stroke="none" stroke-width="1px">50</text><text style="text-anchor: middle; visibility: inherit; font-family: &quot;Helvetica Neue&quot;, sans-serif; font-size: 12px; font-weight: 200;" x="967.8087997436522" y="0" dx="0em" dy="0.95em" fill="rgb(50, 49, 63)" stroke="none" stroke-width="1px">60</text><text style="text-anchor: middle; visibility: inherit; font-family: &quot;Helvetica Neue&quot;, sans-serif; font-size: 12px; font-weight: 200;" x="1106.0671997070312" y="0" dx="0em" dy="0.95em" fill="rgb(50, 49, 63)" stroke="none" stroke-width="1px">70</text><text style="text-anchor: middle; visibility: inherit; font-family: &quot;Helvetica Neue&quot;, sans-serif; font-size: 12px; font-weight: 200;" x="1244.3255996704102" y="0" dx="0em" dy="0.95em" fill="rgb(50, 49, 63)" stroke="none" stroke-width="1px">80</text><text style="text-anchor: middle; visibility: hidden; font-family: &quot;Helvetica Neue&quot;, sans-serif; font-size: 12px; font-weight: 200;" x="1382.583999633789" y="0" dx="0em" dy="0.95em" fill="rgb(50, 49, 63)" stroke="none" stroke-width="1px">90</text></g><line x1="0" y1="0" x2="1382.583999633789" y2="0" fill="rgb(0, 0, 0)" stroke="rgb(204, 204, 204)" stroke-width="1px"></line></g></g></g></g></svg>